<?xml version="1.0" encoding="utf-8"?>
<!-- Generator: Adobe Illustrator 27.0.0, SVG Export Plug-In . SVG Version: 6.00 Build 0)  -->
<svg version="1.1" id="svg1882" xmlns:svg="http://www.w3.org/2000/svg"
	 xmlns="http://www.w3.org/2000/svg" xmlns:xlink="http://www.w3.org/1999/xlink" x="0px" y="0px" viewBox="0 0 85 23"
	 style="enable-background:new 0 0 85 23;" xml:space="preserve">
<style type="text/css">
	.st0{fill:#FF0000;}
</style>
<g id="layer1" transform="translate(-421.8795,-104.786)">
	<g id="g2025" transform="translate(453.4262,-442.0292)">
		<g id="g18131" transform="translate(10.47884,4.634008)">
			<path id="path17968" class="st0" d="M-15,549.8c-1.6-0.5-3.6,0.8-4.3,2.9c-0.4,1.2-0.4,2.4,0.1,3.4c0.3,0.7,0.9,1.1,1.5,1.3
				c1.6,0.5,3.6-0.8,4.3-2.9c0.4-1.2,0.4-2.4-0.1-3.4C-13.9,550.4-14.4,550-15,549.8z M-15.5,553.9c-0.4,1.1-1.1,1.8-1.6,1.6
				c-0.5-0.2-0.7-1.2-0.3-2.3c0.4-1.1,1.1-1.8,1.6-1.6C-15.3,551.8-15.1,552.9-15.5,553.9"/>
			<path id="path17970" class="st0" d="M-15.7,547.4c-3.1,0-6,2.4-6.5,6.2c-0.5,3.9,1.7,6.2,4.9,6.2c3.1,0,6-2.3,6.5-6.2
				C-10.3,549.9-12.6,547.4-15.7,547.4z M-12.8,554.7c-0.9,2.5-3.3,4-5.3,3.3c-0.8-0.3-1.5-0.9-1.9-1.7c-0.6-1.1-0.6-2.6-0.1-4
				c0.9-2.5,3.3-4,5.3-3.3c0.8,0.3,1.5,0.9,1.9,1.7C-12.3,551.9-12.3,553.3-12.8,554.7"/>
			<path id="path17972" class="st0" d="M27.1,547.6l-4.4,11.9h6.9l1.2-3.2h-3.3l0.6-1.8h3.4l0.6-1.7h-3.3l0.7-1.8h3.3l1.2-3.3H27.1"
				/>
			<path id="path17974" class="st0" d="M26.2,547.6l-1.2,3.2h-2.9l-3.2,8.7h-3.7l3.2-8.7h-2.9l1.2-3.2H26.2"/>
			<path id="path17976" class="st0" d="M11.7,547.7h3.9l-4.4,11.8H7.4L11.7,547.7"/>
			<path id="path17978" class="st0" d="M10.6,547.6l-1.2,3.2H6.6l-3.2,8.7h-3.7l3.1-8.7h-2.9l1.2-3.2H10.6"/>
			<path id="path17986" class="st0" d="M-26.4,555.6l2.9-7.9h-5.1l-4.3,11.8h8.7l1.4-3.9H-26.4z M-25.4,557.9h-4.9l3-8.2h0.8
				l-2.7,7.4h4.1L-25.4,557.9"/>
			<path id="path17988" class="st0" d="M-3.7,547.4c-3.1,0-6,2.5-6.5,6.3c-0.5,3.9,1.7,6.2,4.9,6.2c0.6,0,1.1-0.1,1.6-0.2l1.5-4.1
				c-0.1,0-0.2,0.1-0.3,0.1c-0.6,0.2-1.2,0.2-1.5,0.2c-1,0-1.8-0.8-1.6-2c0.2-1.2,1.1-2,2.1-2c0.1,0,0.7,0,1,0.2
				c0.5,0.3,0.7,0.5,0.8,0.6l1.4-3.8C-1.1,547.9-2.3,547.4-3.7,547.4z M-3,550.1c-0.6-0.2-1.3-0.1-2,0.3c-1,0.6-1.8,1.6-2.1,2.9
				c-0.1,0.4-0.2,0.9-0.2,1.3c0,1.4,0.6,2.4,1.7,2.7c0.2,0.1,0.3,0.1,0.5,0.1l-0.2,0.7c-0.2,0-0.3,0-0.5-0.1
				c-1.4-0.4-2.1-1.6-2.2-3.3h0c0-0.1,0-0.1,0-0.1c0,0,0,0,0-0.1h0c0-0.5,0.1-1,0.2-1.4c0.4-1.5,1.3-2.7,2.5-3.3
				c0.8-0.5,1.7-0.6,2.6-0.4L-3,550.1"/>
		</g>
	</g>
</g>
</svg>
