<?xml version="1.0" encoding="utf-8"?>
<!-- Generator: Adobe Illustrator 27.0.0, SVG Export Plug-In . SVG Version: 6.00 Build 0)  -->
<svg version="1.1"
	 id="svg40" xmlns:sodipodi="http://sodipodi.sourceforge.net/DTD/sodipodi-0.dtd" xmlns:inkscape="http://www.inkscape.org/namespaces/inkscape" xmlns:rdf="http://www.w3.org/1999/02/22-rdf-syntax-ns#" xmlns:svg="http://www.w3.org/2000/svg" xmlns:cc="http://creativecommons.org/ns#" xmlns:dc="http://purl.org/dc/elements/1.1/" inkscape:export-filename="/home/kevin/src/reprap/firmware/klipper/logs/logo-20190416/klipper6.svg.png" inkscape:export-xdpi="96" sodipodi:docname="klipper.svg"
	 xmlns="http://www.w3.org/2000/svg" xmlns:xlink="http://www.w3.org/1999/xlink" x="0px" y="0px" viewBox="0 0 141.7 141.7"
	 style="enable-background:new 0 0 141.7 141.7;" xml:space="preserve">
<style type="text/css">
	.st0{fill-rule:evenodd;clip-rule:evenodd;fill:#3C4B5A;}
	.st1{fill-rule:evenodd;clip-rule:evenodd;fill:#B12F35;}
	.st2{fill:#3C4B5A;}
</style>
<g>
	
		<sodipodi:namedview  bordercolor="#666666" borderopacity="1" gridtolerance="10" guidetolerance="10" id="namedview42" inkscape:current-layer="svg40" inkscape:cx="327.89418" inkscape:cy="289.76441" inkscape:pageopacity="0" inkscape:pageshadow="2" inkscape:window-height="1030" inkscape:window-maximized="1" inkscape:window-width="1920" inkscape:window-x="0" inkscape:window-y="0" inkscape:zoom="0.95" objecttolerance="10" pagecolor="#ffffff" showborder="false" showgrid="false" showguides="false">
		<inkscape:grid  id="grid905" type="xygrid"></inkscape:grid>
	</sodipodi:namedview>
	<path id="path2" inkscape:connector-curvature="0" sodipodi:nodetypes="ccccccccccc" class="st0" d="M17.1,26.5V48l40,39.2
		l17.7-0.8H87L124.7,48V26.5h-1.5L71.6,78.8l-53-52.3H17.1z"/>
	<path id="path8" inkscape:connector-curvature="0" sodipodi:nodetypes="ccccccccccc" class="st0" d="M34,85.5L25,94.3l0.2,3.8v2.9
		l8.8,8.8h4.2v-0.2L26.4,97.6l11.7-11.9v-0.2H34z"/>
	<g id="g17" transform="translate(-1.08348e-4,0.048)">
		<path id="path15" inkscape:connector-curvature="0" sodipodi:nodetypes="cccccccccccccccccc" class="st1" d="M25.2,92.7L25.2,92.7
			l0,4.2h1.7l11.2-11.4v2.2l-9.7,9.9l9.7,10.1v2.2L26.9,98.3h-2c-0.3,0-0.6-0.3-0.6-0.6H24v-5.1h0.3c0-0.2,0.2-0.3,0.5-0.3
			c0.3,0,0.5,0.2,0.5,0.3L25.2,92.7z"/>
	</g>
	<g id="path839" transform="matrix(1.03281,0,0,1.0326797,24.31099,-21.921569)">
		<rect id="rect12" x="-4.6" y="104.1" class="st2" width="4.6" height="23.5"/>
	</g>
	<rect id="rect23" x="50.4" y="93.4" class="st0" width="3.7" height="16.5"/>
	<path id="path25" inkscape:connector-curvature="0" class="st2" d="M69.6,101.5c0-1.7-0.4-3-1.1-3.9c-0.8-0.9-2-1.4-3.6-1.4
		c-0.4,0-0.7,0-1.1,0c-0.4,0-0.8,0.1-1.1,0.2v9.3c0.3,0.2,0.8,0.4,1.3,0.6c0.5,0.2,1.1,0.3,1.8,0.3c1.4,0,2.4-0.5,3-1.4
		C69.3,104.3,69.6,103,69.6,101.5L69.6,101.5z M73.5,101.4c0,1.2-0.2,2.4-0.5,3.4c-0.3,1-0.8,1.9-1.4,2.7c-0.6,0.7-1.3,1.3-2.2,1.7
		c-0.9,0.4-1.9,0.6-3.1,0.6c-0.8,0-1.5-0.1-2.1-0.3c-0.6-0.2-1.2-0.4-1.6-0.6v6.3h-3.8V93.8c0.8-0.2,1.7-0.4,2.8-0.6
		c1.1-0.2,2.3-0.3,3.5-0.3c1.3,0,2.4,0.2,3.4,0.6c1,0.4,1.9,1,2.6,1.7s1.3,1.6,1.6,2.7C73.3,98.9,73.5,100.1,73.5,101.4L73.5,101.4z
		"/>
	<path id="path27" inkscape:connector-curvature="0" class="st2" d="M88.2,101.5c0-1.7-0.4-3-1.1-3.9c-0.8-0.9-2-1.4-3.6-1.4
		c-0.4,0-0.7,0-1.1,0c-0.4,0-0.8,0.1-1.1,0.2v9.3c0.3,0.2,0.8,0.4,1.3,0.6c0.5,0.2,1.1,0.3,1.8,0.3c1.4,0,2.4-0.5,3-1.4
		C87.9,104.3,88.2,103,88.2,101.5z M92.1,101.4c0,1.2-0.2,2.4-0.5,3.4c-0.3,1-0.8,1.9-1.4,2.7c-0.6,0.7-1.3,1.3-2.2,1.7
		c-0.9,0.4-1.9,0.6-3.1,0.6c-0.8,0-1.5-0.1-2.1-0.3c-0.6-0.2-1.2-0.4-1.6-0.6v6.3h-3.8V93.8c0.8-0.2,1.7-0.4,2.8-0.6
		c1.1-0.2,2.3-0.3,3.5-0.3c1.3,0,2.4,0.2,3.4,0.6c1,0.4,1.9,1,2.6,1.7c0.7,0.7,1.3,1.6,1.6,2.7C91.9,98.9,92.1,100.1,92.1,101.4
		L92.1,101.4z"/>
	<path id="path29" inkscape:connector-curvature="0" class="st2" d="M95,101.4c0-1.4,0.2-2.7,0.6-3.8c0.4-1.1,1-2,1.7-2.7
		c0.7-0.7,1.5-1.3,2.4-1.6c0.9-0.4,1.8-0.5,2.8-0.5c2.2,0,4,0.7,5.2,2.1c1.2,1.4,1.9,3.5,1.9,6.2c0,0.2,0,0.4,0,0.7
		c0,0.3,0,0.5,0,0.7H98.9c0.1,1.3,0.6,2.3,1.4,3c0.8,0.7,2,1.1,3.5,1.1c0.9,0,1.7-0.1,2.5-0.2c0.8-0.2,1.3-0.3,1.8-0.5l0.5,3.1
		c-0.2,0.1-0.5,0.2-0.9,0.3c-0.4,0.1-0.8,0.2-1.2,0.3c-0.5,0.1-1,0.2-1.5,0.2c-0.5,0.1-1.1,0.1-1.6,0.1c-1.4,0-2.7-0.2-3.7-0.6
		c-1.1-0.4-1.9-1-2.6-1.8c-0.7-0.8-1.2-1.6-1.5-2.7C95.2,103.7,95,102.6,95,101.4z M105.9,99.7c0-0.5-0.1-1-0.2-1.5
		s-0.4-0.9-0.6-1.2c-0.3-0.3-0.6-0.6-1-0.8c-0.4-0.2-0.9-0.3-1.4-0.3c-0.6,0-1.1,0.1-1.5,0.3c-0.4,0.2-0.8,0.5-1.1,0.9
		c-0.3,0.4-0.5,0.8-0.7,1.2c-0.2,0.5-0.3,0.9-0.3,1.4H105.9z"/>
	<path id="path31" inkscape:connector-curvature="0" class="st2" d="M122.8,97c-0.3-0.1-0.7-0.2-1.3-0.3c-0.5-0.1-1.2-0.2-1.9-0.2
		c-0.4,0-0.8,0-1.3,0.1c-0.5,0.1-0.8,0.2-1,0.2v13h-3.7V94.4c0.7-0.3,1.6-0.5,2.7-0.8c1.1-0.2,2.3-0.4,3.6-0.4c0.2,0,0.5,0,0.9,0
		c0.3,0,0.7,0.1,1,0.1c0.3,0.1,0.6,0.1,1,0.2c0.3,0.1,0.6,0.1,0.7,0.2L122.8,97z"/>
	<path id="path35" inkscape:connector-curvature="0" sodipodi:nodetypes="cccccccccccccc" class="st1" d="M52.3,86.5h15.5v-10
		l-50.7-50h9.2l45.4,44.6l43.8-44.6h9.2l-49.2,50v13.1c0,0.8-0.8,1.5-1.5,1.5H52.3c-1.8,0-2.2-1.5-2.2-2.3
		C50.1,88,50.4,86.5,52.3,86.5z"/>
	<rect id="rect12-6" x="41.8" y="85.5" class="st2" width="3.7" height="24.3"/>
</g>
</svg>
