<svg id="Layer_1" data-name="Layer 1" xmlns="http://www.w3.org/2000/svg" viewBox="0 0 638 206.11"><defs><style>.cls-1{fill:#ff4500;}.cls-2{fill:#fff;}</style></defs><title>Reddit Logo Vector</title><circle class="cls-1" cx="103.05" cy="103.05" r="103.05"/><path class="cls-2" d="M352.78,500a15,15,0,0,0-25.46-10.32A73.13,73.13,0,0,0,287.64,477l6.69-32.15,22.05,4.63a10.3,10.3,0,1,0,9.15-11.34,10.19,10.19,0,0,0-7.79,5l-25.26-5a3.18,3.18,0,0,0-3.81,2.43v.05l-7.61,35.76a73.81,73.81,0,0,0-40.19,12.68A15,15,0,1,0,220.27,511a14.52,14.52,0,0,0,4,2.71,31.27,31.27,0,0,0,0,4.54c0,23.08,26.89,41.86,60.07,41.86s60.07-18.76,60.07-41.86a34.39,34.39,0,0,0,0-4.54A15,15,0,0,0,352.78,500Zm-103,10.32a10.33,10.33,0,1,1,10.32,10.33A10.34,10.34,0,0,1,249.73,510.32Zm59.86,28.33a39.57,39.57,0,0,1-25.46,8,39.57,39.57,0,0,1-25.46-8,2.78,2.78,0,0,1,3.92-3.91A33.67,33.67,0,0,0,284,541.22a33.93,33.93,0,0,0,21.54-6.28,2.88,2.88,0,0,1,4,4.12h0v-.41ZM307.75,521a7.3,7.3,0,1,1,.43.38h-.51Z" transform="translate(-181 -396.95)"/><circle class="cls-1" cx="574.96" cy="57.59" r="14.04"/><path d="M557,514.27a9.92,9.92,0,0,0,10.56-9.17c0-.31,0-.67,0-1a36.39,36.39,0,0,0-.69-5.69,38.75,38.75,0,0,0-36.58-31.58c-20.57,0-37.76,18.9-37.76,42.11s16.91,42.14,37.73,42.14a37.49,37.49,0,0,0,29.18-12.19,8.15,8.15,0,0,0-.54-11.53,7,7,0,0,0-.74-.62,8.58,8.58,0,0,0-10.48,1.08,25.76,25.76,0,0,1-17.42,7.45,23.46,23.46,0,0,1-21.51-21.1h47.92Zm-26.79-31.59a22.66,22.66,0,0,1,20.57,17.55H509.71A22.49,22.49,0,0,1,530.23,482.68Z" transform="translate(-181 -396.95)"/><path d="M493.39,475a7.83,7.83,0,0,0-6.84-7.79,30.47,30.47,0,0,0-28.28,10.35v-1a7.92,7.92,0,1,0-15.83,0v64.8a8.08,8.08,0,0,0,7.4,8.23,7.86,7.86,0,0,0,8.4-7.3,4.82,4.82,0,0,0,0-.93V508.09A24.06,24.06,0,0,1,481,482.81a20.17,20.17,0,0,1,3.56.08h1.59A7.92,7.92,0,0,0,493.39,475Z" transform="translate(-181 -396.95)"/><path d="M763.85,483.5a7.92,7.92,0,0,0-15.83,0h0v57.82a7.92,7.92,0,0,0,15.83,0Z" transform="translate(-181 -396.95)"/><path d="M647,439.57a7.9,7.9,0,0,0-7.89-7.89h0a7.89,7.89,0,0,0-7.89,7.89v35.35a27.39,27.39,0,0,0-20.21-8.09c-20.57,0-37.76,18.9-37.76,42.11s16.93,42.14,37.76,42.14a27.92,27.92,0,0,0,20.57-8.17,7.89,7.89,0,0,0,9.78,5.33,7.79,7.79,0,0,0,5.61-7l0-101.67Zm-36,95.91c-12.11,0-22-11.78-22-26.36s9.78-26.36,22-26.36,22,11.78,22,26.36-9.78,26.23-21.92,26.23Z" transform="translate(-181 -396.95)"/><path d="M729.57,439.57a7.89,7.89,0,0,0-7.89-7.89h0a7.9,7.9,0,0,0-7.89,7.89h0v35.35a27.38,27.38,0,0,0-20.21-8.09c-20.57,0-37.76,18.9-37.76,42.11s16.94,42.14,37.76,42.14a27.9,27.9,0,0,0,20.57-8.17,7.89,7.89,0,0,0,9.79,5.33,7.8,7.8,0,0,0,5.61-7l0-101.67Zm-36,95.91c-12.12,0-22-11.78-22-26.36s9.78-26.36,22-26.36,22,11.78,22,26.36-9.78,26.23-21.92,26.23Z" transform="translate(-181 -396.95)"/><path d="M804.86,541.29V482.68h6.84a6.85,6.85,0,0,0,7.25-6.43c0-.12,0-.28,0-.43a6.85,6.85,0,0,0-6.2-7.43,4.5,4.5,0,0,0-.64,0h-7.25V457.48a8.11,8.11,0,0,0-7.4-8.17,7.88,7.88,0,0,0-8.4,7.3,3.51,3.51,0,0,0,0,.56v11.37h-6.86a6.86,6.86,0,0,0-7.25,6.43c0,.13,0,.28,0,.44a6.87,6.87,0,0,0,6.2,7.43c.21,0,.44,0,.64,0h6.84v58.46a7.9,7.9,0,0,0,7.89,7.89h0a7.88,7.88,0,0,0,8.35-7.4A2.91,2.91,0,0,0,804.86,541.29Z" transform="translate(-181 -396.95)"/></svg>